solid LP451165_nominal
  facet normal 0 0 -1
    outer loop
      vertex 0 0 0
      vertex 65 11 0
      vertex 65 0 0
    endloop
  endfacet
  facet normal 0 0 -1
    outer loop
      vertex 0 0 0
      vertex 0 11 0
      vertex 65 11 0
    endloop
  endfacet
  facet normal 0 0 1
    outer loop
      vertex 0 0 4.5
      vertex 65 0 4.5
      vertex 65 11 4.5
    endloop
  endfacet
  facet normal 0 0 1
    outer loop
      vertex 0 0 4.5
      vertex 65 11 4.5
      vertex 0 11 4.5
    endloop
  endfacet
  facet normal 0 -1 0
    outer loop
      vertex 0 0 0
      vertex 65 0 0
      vertex 65 0 4.5
    endloop
  endfacet
  facet normal 0 -1 0
    outer loop
      vertex 0 0 0
      vertex 65 0 4.5
      vertex 0 0 4.5
    endloop
  endfacet
  facet normal 1 0 0
    outer loop
      vertex 65 0 0
      vertex 65 11 0
      vertex 65 11 4.5
    endloop
  endfacet
  facet normal 1 0 0
    outer loop
      vertex 65 0 0
      vertex 65 11 4.5
      vertex 65 0 4.5
    endloop
  endfacet
  facet normal 0 1 0
    outer loop
      vertex 65 11 0
      vertex 0 11 0
      vertex 0 11 4.5
    endloop
  endfacet
  facet normal 0 1 -0
    outer loop
      vertex 65 11 0
      vertex 0 11 4.5
      vertex 65 11 4.5
    endloop
  endfacet
  facet normal -1 0 0
    outer loop
      vertex 0 11 0
      vertex 0 0 0
      vertex 0 0 4.5
    endloop
  endfacet
  facet normal -1 0 0
    outer loop
      vertex 0 11 0
      vertex 0 0 4.5
      vertex 0 11 4.5
    endloop
  endfacet
endsolid LP451165_nominal