solid LP451165_clearance
  facet normal 0 0 -1
    outer loop
      vertex 0 0 0
      vertex 70 12.8 0
      vertex 70 0 0
    endloop
  endfacet
  facet normal 0 0 -1
    outer loop
      vertex 0 0 0
      vertex 0 12.8 0
      vertex 70 12.8 0
    endloop
  endfacet
  facet normal 0 0 1
    outer loop
      vertex 0 0 5.6
      vertex 70 0 5.6
      vertex 70 12.8 5.6
    endloop
  endfacet
  facet normal 0 0 1
    outer loop
      vertex 0 0 5.6
      vertex 70 12.8 5.6
      vertex 0 12.8 5.6
    endloop
  endfacet
  facet normal 0 -1 0
    outer loop
      vertex 0 0 0
      vertex 70 0 0
      vertex 70 0 5.6
    endloop
  endfacet
  facet normal 0 -1 0
    outer loop
      vertex 0 0 0
      vertex 70 0 5.6
      vertex 0 0 5.6
    endloop
  endfacet
  facet normal 1 0 0
    outer loop
      vertex 70 0 0
      vertex 70 12.8 0
      vertex 70 12.8 5.6
    endloop
  endfacet
  facet normal 1 0 0
    outer loop
      vertex 70 0 0
      vertex 70 12.8 5.6
      vertex 70 0 5.6
    endloop
  endfacet
  facet normal 0 1 0
    outer loop
      vertex 70 12.8 0
      vertex 0 12.8 0
      vertex 0 12.8 5.6
    endloop
  endfacet
  facet normal 0 1 -0
    outer loop
      vertex 70 12.8 0
      vertex 0 12.8 5.6
      vertex 70 12.8 5.6
    endloop
  endfacet
  facet normal -1 0 0
    outer loop
      vertex 0 12.8 0
      vertex 0 0 0
      vertex 0 0 5.6
    endloop
  endfacet
  facet normal -1 0 0
    outer loop
      vertex 0 12.8 0
      vertex 0 0 5.6
      vertex 0 12.8 5.6
    endloop
  endfacet
endsolid LP451165_clearance