<?xml version="1.0" encoding="UTF-8"?>
<svg xmlns="http://www.w3.org/2000/svg" width="250.0mm" height="350.0mm" viewBox="0 0 250.0 350.0"><defs><linearGradient id="grad_1" x1="0%" y1="0%" x2="0%" y2="100%"><stop offset="0%" stop-color="#e8e8ff" /><stop offset="100%" stop-color="#d5d5ea" /></linearGradient><linearGradient id="grad_2" x1="0%" y1="0%" x2="0%" y2="100%"><stop offset="0%" stop-color="#e8e8ff" /><stop offset="100%" stop-color="#d5d5ea" /></linearGradient><linearGradient id="grad_3" x1="0%" y1="0%" x2="0%" y2="100%"><stop offset="0%" stop-color="#e8e8ff" /><stop offset="100%" stop-color="#d5d5ea" /></linearGradient><linearGradient id="grad_4" x1="0%" y1="0%" x2="0%" y2="100%"><stop offset="0%" stop-color="#e8e8ff" /><stop offset="100%" stop-color="#d5d5ea" /></linearGradient><linearGradient id="grad_5" x1="0%" y1="0%" x2="0%" y2="100%"><stop offset="0%" stop-color="#e8e8ff" /><stop offset="100%" stop-color="#d5d5ea" /></linearGradient><linearGradient id="grad_6" x1="0%" y1="0%" x2="0%" y2="100%"><stop offset="0%" stop-color="#e8e8ff" /><stop offset="100%" stop-color="#d5d5ea" /></linearGradient><linearGradient id="grad_7" x1="0%" y1="0%" x2="0%" y2="100%"><stop offset="0%" stop-color="#e8e8ff" /><stop offset="100%" stop-color="#d5d5ea" /></linearGradient><linearGradient id="grad_8" x1="0%" y1="0%" x2="0%" y2="100%"><stop offset="0%" stop-color="#e8e8ff" /><stop offset="100%" stop-color="#d5d5ea" /></linearGradient></defs><rect x="0" y="0" width="250" height="350" stroke="none" fill="#ffffff" stroke-width="0.254" /><text x="125" y="6" font-size="4" font-family="sans-serif" text-anchor="middle" dominant-baseline="auto" fill="#1a1a1a" font-weight="bold">Bus Topology</text><text x="15" y="24" font-size="2.5" font-family="sans-serif" text-anchor="start" dominant-baseline="auto" fill="#004020" font-weight="bold">I2C</text><line x1="35" y1="35" x2="235" y2="35" stroke="#008040" stroke-width="0.8" stroke-linecap="round" /><rect x="45.5" y="22.5" width="25" height="10" stroke="none" fill="#000000" stroke-width="0" rx="2" opacity="0.08" /><rect x="45" y="22" width="25" height="10" stroke="#4040c0" fill="url(#grad_1)" stroke-width="0.3" rx="2" /><text x="57.5" y="25.5" font-size="2.5" font-family="sans-serif" text-anchor="middle" dominant-baseline="central" fill="#202060" font-weight="bold">U10</text><text x="57.5" y="29" font-size="1.8" font-family="sans-serif" text-anchor="middle" dominant-baseline="central" fill="#202060">ICM-42688-P</text><line x1="57.5" y1="32" x2="57.5" y2="35" stroke="#606060" stroke-width="0.3" stroke-linecap="round" /><text x="15" y="64" font-size="2.5" font-family="sans-serif" text-anchor="start" dominant-baseline="auto" fill="#004020" font-weight="bold">I2C</text><line x1="35" y1="75" x2="235" y2="75" stroke="#008040" stroke-width="0.8" stroke-linecap="round" /><rect x="45.5" y="62.5" width="25" height="10" stroke="none" fill="#000000" stroke-width="0" rx="2" opacity="0.08" /><rect x="45" y="62" width="25" height="10" stroke="#4040c0" fill="url(#grad_2)" stroke-width="0.3" rx="2" /><text x="57.5" y="65.5" font-size="2.5" font-family="sans-serif" text-anchor="middle" dominant-baseline="central" fill="#202060" font-weight="bold">U10</text><text x="57.5" y="69" font-size="1.8" font-family="sans-serif" text-anchor="middle" dominant-baseline="central" fill="#202060">ICM-42688-P</text><line x1="57.5" y1="72" x2="57.5" y2="75" stroke="#606060" stroke-width="0.3" stroke-linecap="round" /><text x="15" y="104" font-size="2.5" font-family="sans-serif" text-anchor="start" dominant-baseline="auto" fill="#004020" font-weight="bold">I2C</text><line x1="35" y1="115" x2="235" y2="115" stroke="#008040" stroke-width="0.8" stroke-linecap="round" /><rect x="45.5" y="102.5" width="25" height="10" stroke="none" fill="#000000" stroke-width="0" rx="2" opacity="0.08" /><rect x="45" y="102" width="25" height="10" stroke="#4040c0" fill="url(#grad_3)" stroke-width="0.3" rx="2" /><text x="57.5" y="105.5" font-size="2.5" font-family="sans-serif" text-anchor="middle" dominant-baseline="central" fill="#202060" font-weight="bold">U7</text><text x="57.5" y="109" font-size="1.8" font-family="sans-serif" text-anchor="middle" dominant-baseline="central" fill="#202060">BQ25180</text><line x1="57.5" y1="112" x2="57.5" y2="115" stroke="#606060" stroke-width="0.3" stroke-linecap="round" /><rect x="78.5" y="118.5" width="25" height="10" stroke="none" fill="#000000" stroke-width="0" rx="2" opacity="0.08" /><rect x="78" y="118" width="25" height="10" stroke="#4040c0" fill="url(#grad_4)" stroke-width="0.3" rx="2" /><text x="90.5" y="121.5" font-size="2.5" font-family="sans-serif" text-anchor="middle" dominant-baseline="central" fill="#202060" font-weight="bold">U9</text><text x="90.5" y="125" font-size="1.8" font-family="sans-serif" text-anchor="middle" dominant-baseline="central" fill="#202060">MAX17048</text><line x1="90.5" y1="118" x2="90.5" y2="115" stroke="#606060" stroke-width="0.3" stroke-linecap="round" /><text x="15" y="144" font-size="2.5" font-family="sans-serif" text-anchor="start" dominant-baseline="auto" fill="#004020" font-weight="bold">I2C</text><line x1="35" y1="155" x2="235" y2="155" stroke="#008040" stroke-width="0.8" stroke-linecap="round" /><rect x="45.5" y="142.5" width="25" height="10" stroke="none" fill="#000000" stroke-width="0" rx="2" opacity="0.08" /><rect x="45" y="142" width="25" height="10" stroke="#4040c0" fill="url(#grad_5)" stroke-width="0.3" rx="2" /><text x="57.5" y="145.5" font-size="2.5" font-family="sans-serif" text-anchor="middle" dominant-baseline="central" fill="#202060" font-weight="bold">U7</text><text x="57.5" y="149" font-size="1.8" font-family="sans-serif" text-anchor="middle" dominant-baseline="central" fill="#202060">BQ25180</text><line x1="57.5" y1="152" x2="57.5" y2="155" stroke="#606060" stroke-width="0.3" stroke-linecap="round" /><rect x="78.5" y="158.5" width="25" height="10" stroke="none" fill="#000000" stroke-width="0" rx="2" opacity="0.08" /><rect x="78" y="158" width="25" height="10" stroke="#4040c0" fill="url(#grad_6)" stroke-width="0.3" rx="2" /><text x="90.5" y="161.5" font-size="2.5" font-family="sans-serif" text-anchor="middle" dominant-baseline="central" fill="#202060" font-weight="bold">U9</text><text x="90.5" y="165" font-size="1.8" font-family="sans-serif" text-anchor="middle" dominant-baseline="central" fill="#202060">MAX17048</text><line x1="90.5" y1="158" x2="90.5" y2="155" stroke="#606060" stroke-width="0.3" stroke-linecap="round" /><text x="15" y="184" font-size="2.5" font-family="sans-serif" text-anchor="start" dominant-baseline="auto" fill="#004020" font-weight="bold">UART</text><line x1="35" y1="195" x2="235" y2="195" stroke="#008040" stroke-width="0.8" stroke-linecap="round" /><text x="15" y="224" font-size="2.5" font-family="sans-serif" text-anchor="start" dominant-baseline="auto" fill="#004020" font-weight="bold">UART</text><line x1="35" y1="235" x2="235" y2="235" stroke="#008040" stroke-width="0.8" stroke-linecap="round" /><text x="15" y="264" font-size="2.5" font-family="sans-serif" text-anchor="start" dominant-baseline="auto" fill="#004020" font-weight="bold">UART</text><line x1="35" y1="275" x2="235" y2="275" stroke="#008040" stroke-width="0.8" stroke-linecap="round" /><rect x="45.5" y="262.5" width="25" height="10" stroke="none" fill="#000000" stroke-width="0" rx="2" opacity="0.08" /><rect x="45" y="262" width="25" height="10" stroke="#4040c0" fill="url(#grad_7)" stroke-width="0.3" rx="2" /><text x="57.5" y="265.5" font-size="2.5" font-family="sans-serif" text-anchor="middle" dominant-baseline="central" fill="#202060" font-weight="bold">U14</text><text x="57.5" y="269" font-size="1.8" font-family="sans-serif" text-anchor="middle" dominant-baseline="central" fill="#202060">MAX-M10S-00B-01</text><line x1="57.5" y1="272" x2="57.5" y2="275" stroke="#606060" stroke-width="0.3" stroke-linecap="round" /><text x="15" y="304" font-size="2.5" font-family="sans-serif" text-anchor="start" dominant-baseline="auto" fill="#004020" font-weight="bold">UART</text><line x1="35" y1="315" x2="235" y2="315" stroke="#008040" stroke-width="0.8" stroke-linecap="round" /><rect x="45.5" y="302.5" width="25" height="10" stroke="none" fill="#000000" stroke-width="0" rx="2" opacity="0.08" /><rect x="45" y="302" width="25" height="10" stroke="#4040c0" fill="url(#grad_8)" stroke-width="0.3" rx="2" /><text x="57.5" y="305.5" font-size="2.5" font-family="sans-serif" text-anchor="middle" dominant-baseline="central" fill="#202060" font-weight="bold">U14</text><text x="57.5" y="309" font-size="1.8" font-family="sans-serif" text-anchor="middle" dominant-baseline="central" fill="#202060">MAX-M10S-00B-01</text><line x1="57.5" y1="312" x2="57.5" y2="315" stroke="#606060" stroke-width="0.3" stroke-linecap="round" /></svg>