0
SECTION
2
HEADER
9
$ACADVER
1
AC1027
9
$INSUNITS
70
4
0
ENDSEC
0
SECTION
2
TABLES
0
TABLE
2
LAYER
70
10
0
LAYER
2
SHELL
70
0
62
8
6
CONTINUOUS
0
LAYER
2
COMPUTE
70
0
62
140
6
CONTINUOUS
0
LAYER
2
POWER
70
0
62
200
6
CONTINUOUS
0
LAYER
2
RF
70
0
62
94
6
CONTINUOUS
0
LAYER
2
AUDIO
70
0
62
50
6
CONTINUOUS
0
LAYER
2
BATTERY
70
0
62
1
6
CONTINUOUS
0
LAYER
2
TBD
70
0
62
30
6
CONTINUOUS
0
LAYER
2
KEEP_OUT
70
0
62
3
6
CONTINUOUS
0
LAYER
2
DIM
70
0
62
7
6
CONTINUOUS
0
LAYER
2
TEXT
70
0
62
7
6
CONTINUOUS
0
ENDTAB
0
ENDSEC
0
SECTION
2
ENTITIES
0
TEXT
8
TEXT
10
-90.0000
20
-20.0000
30
0.0000
40
4.0000
1
AI Glasses Chip-down EVT V2.0 - 3D envelope DXF, units=mm
0
3DFACE
8
SHELL
10
-75.0000
20
-9.0000
30
0.0000
11
75.0000
21
-9.0000
31
0.0000
12
75.0000
22
-1.0000
32
0.0000
13
-75.0000
23
-1.0000
33
0.0000
0
3DFACE
8
SHELL
10
-75.0000
20
-9.0000
30
42.0000
11
75.0000
21
-9.0000
31
42.0000
12
75.0000
22
-1.0000
32
42.0000
13
-75.0000
23
-1.0000
33
42.0000
0
3DFACE
8
SHELL
10
-75.0000
20
-9.0000
30
0.0000
11
75.0000
21
-9.0000
31
0.0000
12
75.0000
22
-9.0000
32
42.0000
13
-75.0000
23
-9.0000
33
42.0000
0
3DFACE
8
SHELL
10
75.0000
20
-9.0000
30
0.0000
11
75.0000
21
-1.0000
31
0.0000
12
75.0000
22
-1.0000
32
42.0000
13
75.0000
23
-9.0000
33
42.0000
0
3DFACE
8
SHELL
10
75.0000
20
-1.0000
30
0.0000
11
-75.0000
21
-1.0000
31
0.0000
12
-75.0000
22
-1.0000
32
42.0000
13
75.0000
23
-1.0000
33
42.0000
0
3DFACE
8
SHELL
10
-75.0000
20
-1.0000
30
0.0000
11
-75.0000
21
-9.0000
31
0.0000
12
-75.0000
22
-9.0000
32
42.0000
13
-75.0000
23
-1.0000
33
42.0000
0
3DFACE
8
SHELL
10
70.0000
20
0.0000
30
0.0000
11
90.0000
21
0.0000
31
0.0000
12
90.0000
22
150.0000
32
0.0000
13
70.0000
23
150.0000
33
0.0000
0
3DFACE
8
SHELL
10
70.0000
20
0.0000
30
8.5000
11
90.0000
21
0.0000
31
8.5000
12
90.0000
22
150.0000
32
8.5000
13
70.0000
23
150.0000
33
8.5000
0
3DFACE
8
SHELL
10
70.0000
20
0.0000
30
0.0000
11
90.0000
21
0.0000
31
0.0000
12
90.0000
22
0.0000
32
8.5000
13
70.0000
23
0.0000
33
8.5000
0
3DFACE
8
SHELL
10
90.0000
20
0.0000
30
0.0000
11
90.0000
21
150.0000
31
0.0000
12
90.0000
22
150.0000
32
8.5000
13
90.0000
23
0.0000
33
8.5000
0
3DFACE
8
SHELL
10
90.0000
20
150.0000
30
0.0000
11
70.0000
21
150.0000
31
0.0000
12
70.0000
22
150.0000
32
8.5000
13
90.0000
23
150.0000
33
8.5000
0
3DFACE
8
SHELL
10
70.0000
20
150.0000
30
0.0000
11
70.0000
21
0.0000
31
0.0000
12
70.0000
22
0.0000
32
8.5000
13
70.0000
23
150.0000
33
8.5000
0
3DFACE
8
SHELL
10
-90.0000
20
0.0000
30
0.0000
11
-70.0000
21
0.0000
31
0.0000
12
-70.0000
22
145.0000
32
0.0000
13
-90.0000
23
145.0000
33
0.0000
0
3DFACE
8
SHELL
10
-90.0000
20
0.0000
30
7.5000
11
-70.0000
21
0.0000
31
7.5000
12
-70.0000
22
145.0000
32
7.5000
13
-90.0000
23
145.0000
33
7.5000
0
3DFACE
8
SHELL
10
-90.0000
20
0.0000
30
0.0000
11
-70.0000
21
0.0000
31
0.0000
12
-70.0000
22
0.0000
32
7.5000
13
-90.0000
23
0.0000
33
7.5000
0
3DFACE
8
SHELL
10
-70.0000
20
0.0000
30
0.0000
11
-70.0000
21
145.0000
31
0.0000
12
-70.0000
22
145.0000
32
7.5000
13
-70.0000
23
0.0000
33
7.5000
0
3DFACE
8
SHELL
10
-70.0000
20
145.0000
30
0.0000
11
-90.0000
21
145.0000
31
0.0000
12
-90.0000
22
145.0000
32
7.5000
13
-70.0000
23
145.0000
33
7.5000
0
3DFACE
8
SHELL
10
-90.0000
20
145.0000
30
0.0000
11
-90.0000
21
0.0000
31
0.0000
12
-90.0000
22
0.0000
32
7.5000
13
-90.0000
23
145.0000
33
7.5000
0
3DFACE
8
SHELL
10
61.0000
20
8.0000
30
1.0000
11
79.0000
21
8.0000
31
1.0000
12
79.0000
22
70.0000
32
1.0000
13
61.0000
23
70.0000
33
1.0000
0
3DFACE
8
SHELL
10
61.0000
20
8.0000
30
2.0000
11
79.0000
21
8.0000
31
2.0000
12
79.0000
22
70.0000
32
2.0000
13
61.0000
23
70.0000
33
2.0000
0
3DFACE
8
SHELL
10
61.0000
20
8.0000
30
1.0000
11
79.0000
21
8.0000
31
1.0000
12
79.0000
22
8.0000
32
2.0000
13
61.0000
23
8.0000
33
2.0000
0
3DFACE
8
SHELL
10
79.0000
20
8.0000
30
1.0000
11
79.0000
21
70.0000
31
1.0000
12
79.0000
22
70.0000
32
2.0000
13
79.0000
23
8.0000
33
2.0000
0
3DFACE
8
SHELL
10
79.0000
20
70.0000
30
1.0000
11
61.0000
21
70.0000
31
1.0000
12
61.0000
22
70.0000
32
2.0000
13
79.0000
23
70.0000
33
2.0000
0
3DFACE
8
SHELL
10
61.0000
20
70.0000
30
1.0000
11
61.0000
21
8.0000
31
1.0000
12
61.0000
22
8.0000
32
2.0000
13
61.0000
23
70.0000
33
2.0000
0
TEXT
8
TEXT
10
70.0000
20
39.0000
30
3.0000
40
2.0000
1
R-PCB
0
3DFACE
8
TBD
10
61.6000
20
11.0000
30
2.0000
11
78.8000
21
11.0000
31
2.0000
12
78.8000
22
27.1000
32
2.0000
13
61.6000
23
27.1000
33
2.0000
0
3DFACE
8
TBD
10
61.6000
20
11.0000
30
3.0000
11
78.8000
21
11.0000
31
3.0000
12
78.8000
22
27.1000
32
3.0000
13
61.6000
23
27.1000
33
3.0000
0
3DFACE
8
TBD
10
61.6000
20
11.0000
30
2.0000
11
78.8000
21
11.0000
31
2.0000
12
78.8000
22
11.0000
32
3.0000
13
61.6000
23
11.0000
33
3.0000
0
3DFACE
8
TBD
10
78.8000
20
11.0000
30
2.0000
11
78.8000
21
27.1000
31
2.0000
12
78.8000
22
27.1000
32
3.0000
13
78.8000
23
11.0000
33
3.0000
0
3DFACE
8
TBD
10
78.8000
20
27.1000
30
2.0000
11
61.6000
21
27.1000
31
2.0000
12
61.6000
22
27.1000
32
3.0000
13
78.8000
23
27.1000
33
3.0000
0
3DFACE
8
TBD
10
61.6000
20
27.1000
30
2.0000
11
61.6000
21
11.0000
31
2.0000
12
61.6000
22
11.0000
32
3.0000
13
61.6000
23
27.1000
33
3.0000
0
TEXT
8
TEXT
10
70.2000
20
19.0500
30
4.0000
40
2.0000
1
C01
0
3DFACE
8
TBD
10
64.0000
20
29.5000
30
2.0000
11
74.0000
21
29.5000
31
2.0000
12
74.0000
22
41.0000
32
2.0000
13
64.0000
23
41.0000
33
2.0000
0
3DFACE
8
TBD
10
64.0000
20
29.5000
30
2.9000
11
74.0000
21
29.5000
31
2.9000
12
74.0000
22
41.0000
32
2.9000
13
64.0000
23
41.0000
33
2.9000
0
3DFACE
8
TBD
10
64.0000
20
29.5000
30
2.0000
11
74.0000
21
29.5000
31
2.0000
12
74.0000
22
29.5000
32
2.9000
13
64.0000
23
29.5000
33
2.9000
0
3DFACE
8
TBD
10
74.0000
20
29.5000
30
2.0000
11
74.0000
21
41.0000
31
2.0000
12
74.0000
22
41.0000
32
2.9000
13
74.0000
23
29.5000
33
2.9000
0
3DFACE
8
TBD
10
74.0000
20
41.0000
30
2.0000
11
64.0000
21
41.0000
31
2.0000
12
64.0000
22
41.0000
32
2.9000
13
74.0000
23
41.0000
33
2.9000
0
3DFACE
8
TBD
10
64.0000
20
41.0000
30
2.0000
11
64.0000
21
29.5000
31
2.0000
12
64.0000
22
29.5000
32
2.9000
13
64.0000
23
41.0000
33
2.9000
0
TEXT
8
TEXT
10
69.0000
20
35.2500
30
3.9000
40
2.0000
1
C02
0
3DFACE
8
COMPUTE
10
63.0000
20
43.0000
30
2.0000
11
70.0000
21
43.0000
31
2.0000
12
70.0000
22
50.0000
32
2.0000
13
63.0000
23
50.0000
33
2.0000
0
3DFACE
8
COMPUTE
10
63.0000
20
43.0000
30
2.9000
11
70.0000
21
43.0000
31
2.9000
12
70.0000
22
50.0000
32
2.9000
13
63.0000
23
50.0000
33
2.9000
0
3DFACE
8
COMPUTE
10
63.0000
20
43.0000
30
2.0000
11
70.0000
21
43.0000
31
2.0000
12
70.0000
22
43.0000
32
2.9000
13
63.0000
23
43.0000
33
2.9000
0
3DFACE
8
COMPUTE
10
70.0000
20
43.0000
30
2.0000
11
70.0000
21
50.0000
31
2.0000
12
70.0000
22
50.0000
32
2.9000
13
70.0000
23
43.0000
33
2.9000
0
3DFACE
8
COMPUTE
10
70.0000
20
50.0000
30
2.0000
11
63.0000
21
50.0000
31
2.0000
12
63.0000
22
50.0000
32
2.9000
13
70.0000
23
50.0000
33
2.9000
0
3DFACE
8
COMPUTE
10
63.0000
20
50.0000
30
2.0000
11
63.0000
21
43.0000
31
2.0000
12
63.0000
22
43.0000
32
2.9000
13
63.0000
23
50.0000
33
2.9000
0
TEXT
8
TEXT
10
66.5000
20
46.5000
30
3.9000
40
2.0000
1
C03
0
3DFACE
8
COMPUTE
10
63.0000
20
52.0000
30
2.0000
11
76.0000
21
52.0000
31
2.0000
12
76.0000
22
63.5000
32
2.0000
13
63.0000
23
63.5000
33
2.0000
0
3DFACE
8
COMPUTE
10
63.0000
20
52.0000
30
2.8000
11
76.0000
21
52.0000
31
2.8000
12
76.0000
22
63.5000
32
2.8000
13
63.0000
23
63.5000
33
2.8000
0
3DFACE
8
COMPUTE
10
63.0000
20
52.0000
30
2.0000
11
76.0000
21
52.0000
31
2.0000
12
76.0000
22
52.0000
32
2.8000
13
63.0000
23
52.0000
33
2.8000
0
3DFACE
8
COMPUTE
10
76.0000
20
52.0000
30
2.0000
11
76.0000
21
63.5000
31
2.0000
12
76.0000
22
63.5000
32
2.8000
13
76.0000
23
52.0000
33
2.8000
0
3DFACE
8
COMPUTE
10
76.0000
20
63.5000
30
2.0000
11
63.0000
21
63.5000
31
2.0000
12
63.0000
22
63.5000
32
2.8000
13
76.0000
23
63.5000
33
2.8000
0
3DFACE
8
COMPUTE
10
63.0000
20
63.5000
30
2.0000
11
63.0000
21
52.0000
31
2.0000
12
63.0000
22
52.0000
32
2.8000
13
63.0000
23
63.5000
33
2.8000
0
TEXT
8
TEXT
10
69.5000
20
57.7500
30
3.8000
40
2.0000
1
C04
0
3DFACE
8
POWER
10
72.8000
20
32.0000
30
2.0000
11
77.3000
21
32.0000
31
2.0000
12
77.3000
22
36.5000
32
2.0000
13
72.8000
23
36.5000
33
2.0000
0
3DFACE
8
POWER
10
72.8000
20
32.0000
30
2.8000
11
77.3000
21
32.0000
31
2.8000
12
77.3000
22
36.5000
32
2.8000
13
72.8000
23
36.5000
33
2.8000
0
3DFACE
8
POWER
10
72.8000
20
32.0000
30
2.0000
11
77.3000
21
32.0000
31
2.0000
12
77.3000
22
32.0000
32
2.8000
13
72.8000
23
32.0000
33
2.8000
0
3DFACE
8
POWER
10
77.3000
20
32.0000
30
2.0000
11
77.3000
21
36.5000
31
2.0000
12
77.3000
22
36.5000
32
2.8000
13
77.3000
23
32.0000
33
2.8000
0
3DFACE
8
POWER
10
77.3000
20
36.5000
30
2.0000
11
72.8000
21
36.5000
31
2.0000
12
72.8000
22
36.5000
32
2.8000
13
77.3000
23
36.5000
33
2.8000
0
3DFACE
8
POWER
10
72.8000
20
36.5000
30
2.0000
11
72.8000
21
32.0000
31
2.0000
12
72.8000
22
32.0000
32
2.8000
13
72.8000
23
36.5000
33
2.8000
0
TEXT
8
TEXT
10
75.0500
20
34.2500
30
3.8000
40
2.0000
1
P01
0
3DFACE
8
POWER
10
73.5000
20
50.0000
30
2.0000
11
77.0000
21
50.0000
31
2.0000
12
77.0000
22
54.5000
32
2.0000
13
73.5000
23
54.5000
33
2.0000
0
3DFACE
8
POWER
10
73.5000
20
50.0000
30
2.9000
11
77.0000
21
50.0000
31
2.9000
12
77.0000
22
54.5000
32
2.9000
13
73.5000
23
54.5000
33
2.9000
0
3DFACE
8
POWER
10
73.5000
20
50.0000
30
2.0000
11
77.0000
21
50.0000
31
2.0000
12
77.0000
22
50.0000
32
2.9000
13
73.5000
23
50.0000
33
2.9000
0
3DFACE
8
POWER
10
77.0000
20
50.0000
30
2.0000
11
77.0000
21
54.5000
31
2.0000
12
77.0000
22
54.5000
32
2.9000
13
77.0000
23
50.0000
33
2.9000
0
3DFACE
8
POWER
10
77.0000
20
54.5000
30
2.0000
11
73.5000
21
54.5000
31
2.0000
12
73.5000
22
54.5000
32
2.9000
13
77.0000
23
54.5000
33
2.9000
0
3DFACE
8
POWER
10
73.5000
20
54.5000
30
2.0000
11
73.5000
21
50.0000
31
2.0000
12
73.5000
22
50.0000
32
2.9000
13
73.5000
23
54.5000
33
2.9000
0
TEXT
8
TEXT
10
75.2500
20
52.2500
30
3.9000
40
2.0000
1
P02
0
3DFACE
8
POWER
10
72.5000
20
56.0000
30
2.0000
11
76.5000
21
56.0000
31
2.0000
12
76.5000
22
60.0000
32
2.0000
13
72.5000
23
60.0000
33
2.0000
0
3DFACE
8
POWER
10
72.5000
20
56.0000
30
4.0000
11
76.5000
21
56.0000
31
4.0000
12
76.5000
22
60.0000
32
4.0000
13
72.5000
23
60.0000
33
4.0000
0
3DFACE
8
POWER
10
72.5000
20
56.0000
30
2.0000
11
76.5000
21
56.0000
31
2.0000
12
76.5000
22
56.0000
32
4.0000
13
72.5000
23
56.0000
33
4.0000
0
3DFACE
8
POWER
10
76.5000
20
56.0000
30
2.0000
11
76.5000
21
60.0000
31
2.0000
12
76.5000
22
60.0000
32
4.0000
13
76.5000
23
56.0000
33
4.0000
0
3DFACE
8
POWER
10
76.5000
20
60.0000
30
2.0000
11
72.5000
21
60.0000
31
2.0000
12
72.5000
22
60.0000
32
4.0000
13
76.5000
23
60.0000
33
4.0000
0
3DFACE
8
POWER
10
72.5000
20
60.0000
30
2.0000
11
72.5000
21
56.0000
31
2.0000
12
72.5000
22
56.0000
32
4.0000
13
72.5000
23
60.0000
33
4.0000
0
TEXT
8
TEXT
10
74.5000
20
58.0000
30
5.0000
40
2.0000
1
P03
0
3DFACE
8
TBD
10
60.2000
20
11.5000
30
2.0000
11
62.7000
21
11.5000
31
2.0000
12
62.7000
22
14.7000
32
2.0000
13
60.2000
23
14.7000
33
2.0000
0
3DFACE
8
TBD
10
60.2000
20
11.5000
30
2.8000
11
62.7000
21
11.5000
31
2.8000
12
62.7000
22
14.7000
32
2.8000
13
60.2000
23
14.7000
33
2.8000
0
3DFACE
8
TBD
10
60.2000
20
11.5000
30
2.0000
11
62.7000
21
11.5000
31
2.0000
12
62.7000
22
11.5000
32
2.8000
13
60.2000
23
11.5000
33
2.8000
0
3DFACE
8
TBD
10
62.7000
20
11.5000
30
2.0000
11
62.7000
21
14.7000
31
2.0000
12
62.7000
22
14.7000
32
2.8000
13
62.7000
23
11.5000
33
2.8000
0
3DFACE
8
TBD
10
62.7000
20
14.7000
30
2.0000
11
60.2000
21
14.7000
31
2.0000
12
60.2000
22
14.7000
32
2.8000
13
62.7000
23
14.7000
33
2.8000
0
3DFACE
8
TBD
10
60.2000
20
14.7000
30
2.0000
11
60.2000
21
11.5000
31
2.0000
12
60.2000
22
11.5000
32
2.8000
13
60.2000
23
14.7000
33
2.8000
0
TEXT
8
TEXT
10
61.4500
20
13.1000
30
3.8000
40
2.0000
1
P04
0
3DFACE
8
RF
10
61.8000
20
36.0000
30
3.0000
11
74.0000
21
36.0000
31
3.0000
12
74.0000
22
49.0000
32
3.0000
13
61.8000
23
49.0000
33
3.0000
0
3DFACE
8
RF
10
61.8000
20
36.0000
30
5.0000
11
74.0000
21
36.0000
31
5.0000
12
74.0000
22
49.0000
32
5.0000
13
61.8000
23
49.0000
33
5.0000
0
3DFACE
8
RF
10
61.8000
20
36.0000
30
3.0000
11
74.0000
21
36.0000
31
3.0000
12
74.0000
22
36.0000
32
5.0000
13
61.8000
23
36.0000
33
5.0000
0
3DFACE
8
RF
10
74.0000
20
36.0000
30
3.0000
11
74.0000
21
49.0000
31
3.0000
12
74.0000
22
49.0000
32
5.0000
13
74.0000
23
36.0000
33
5.0000
0
3DFACE
8
RF
10
74.0000
20
49.0000
30
3.0000
11
61.8000
21
49.0000
31
3.0000
12
61.8000
22
49.0000
32
5.0000
13
74.0000
23
49.0000
33
5.0000
0
3DFACE
8
RF
10
61.8000
20
49.0000
30
3.0000
11
61.8000
21
36.0000
31
3.0000
12
61.8000
22
36.0000
32
5.0000
13
61.8000
23
49.0000
33
5.0000
0
TEXT
8
TEXT
10
67.9000
20
42.5000
30
6.0000
40
2.0000
1
RF01
0
3DFACE
8
TBD
10
61.2000
20
34.0000
30
4.9000
11
75.2000
21
34.0000
31
4.9000
12
75.2000
22
64.0000
32
4.9000
13
61.2000
23
64.0000
33
4.9000
0
3DFACE
8
TBD
10
61.2000
20
34.0000
30
5.9000
11
75.2000
21
34.0000
31
5.9000
12
75.2000
22
64.0000
32
5.9000
13
61.2000
23
64.0000
33
5.9000
0
3DFACE
8
TBD
10
61.2000
20
34.0000
30
4.9000
11
75.2000
21
34.0000
31
4.9000
12
75.2000
22
34.0000
32
5.9000
13
61.2000
23
34.0000
33
5.9000
0
3DFACE
8
TBD
10
75.2000
20
34.0000
30
4.9000
11
75.2000
21
64.0000
31
4.9000
12
75.2000
22
64.0000
32
5.9000
13
75.2000
23
34.0000
33
5.9000
0
3DFACE
8
TBD
10
75.2000
20
64.0000
30
4.9000
11
61.2000
21
64.0000
31
4.9000
12
61.2000
22
64.0000
32
5.9000
13
75.2000
23
64.0000
33
5.9000
0
3DFACE
8
TBD
10
61.2000
20
64.0000
30
4.9000
11
61.2000
21
34.0000
31
4.9000
12
61.2000
22
34.0000
32
5.9000
13
61.2000
23
64.0000
33
5.9000
0
TEXT
8
TEXT
10
68.2000
20
49.0000
30
6.9000
40
2.0000
1
SH01
0
3DFACE
8
BATTERY
10
61.0000
20
76.0000
30
1.0000
11
73.8000
21
76.0000
31
1.0000
12
73.8000
22
146.0000
32
1.0000
13
61.0000
23
146.0000
33
1.0000
0
3DFACE
8
BATTERY
10
61.0000
20
76.0000
30
6.6000
11
73.8000
21
76.0000
31
6.6000
12
73.8000
22
146.0000
32
6.6000
13
61.0000
23
146.0000
33
6.6000
0
3DFACE
8
BATTERY
10
61.0000
20
76.0000
30
1.0000
11
73.8000
21
76.0000
31
1.0000
12
73.8000
22
76.0000
32
6.6000
13
61.0000
23
76.0000
33
6.6000
0
3DFACE
8
BATTERY
10
73.8000
20
76.0000
30
1.0000
11
73.8000
21
146.0000
31
1.0000
12
73.8000
22
146.0000
32
6.6000
13
73.8000
23
76.0000
33
6.6000
0
3DFACE
8
BATTERY
10
73.8000
20
146.0000
30
1.0000
11
61.0000
21
146.0000
31
1.0000
12
61.0000
22
146.0000
32
6.6000
13
73.8000
23
146.0000
33
6.6000
0
3DFACE
8
BATTERY
10
61.0000
20
146.0000
30
1.0000
11
61.0000
21
76.0000
31
1.0000
12
61.0000
22
76.0000
32
6.6000
13
61.0000
23
146.0000
33
6.6000
0
TEXT
8
TEXT
10
67.4000
20
111.0000
30
7.6000
40
2.0000
1
BAT-R
0
3DFACE
8
AUDIO
10
60.6000
20
108.0000
30
4.6000
11
71.6000
21
108.0000
31
4.6000
12
71.6000
22
123.0000
32
4.6000
13
60.6000
23
123.0000
33
4.6000
0
3DFACE
8
AUDIO
10
60.6000
20
108.0000
30
7.6000
11
71.6000
21
108.0000
31
7.6000
12
71.6000
22
123.0000
32
7.6000
13
60.6000
23
123.0000
33
7.6000
0
3DFACE
8
AUDIO
10
60.6000
20
108.0000
30
4.6000
11
71.6000
21
108.0000
31
4.6000
12
71.6000
22
108.0000
32
7.6000
13
60.6000
23
108.0000
33
7.6000
0
3DFACE
8
AUDIO
10
71.6000
20
108.0000
30
4.6000
11
71.6000
21
123.0000
31
4.6000
12
71.6000
22
123.0000
32
7.6000
13
71.6000
23
108.0000
33
7.6000
0
3DFACE
8
AUDIO
10
71.6000
20
123.0000
30
4.6000
11
60.6000
21
123.0000
31
4.6000
12
60.6000
22
123.0000
32
7.6000
13
71.6000
23
123.0000
33
7.6000
0
3DFACE
8
AUDIO
10
60.6000
20
123.0000
30
4.6000
11
60.6000
21
108.0000
31
4.6000
12
60.6000
22
108.0000
32
7.6000
13
60.6000
23
123.0000
33
7.6000
0
TEXT
8
TEXT
10
66.1000
20
115.5000
30
8.6000
40
2.0000
1
SPK-R
0
3DFACE
8
RF
10
75.7000
20
126.0000
30
4.8000
11
80.7000
21
126.0000
31
4.8000
12
80.7000
22
140.0000
32
4.8000
13
75.7000
23
140.0000
33
4.8000
0
3DFACE
8
RF
10
75.7000
20
126.0000
30
4.9000
11
80.7000
21
126.0000
31
4.9000
12
80.7000
22
140.0000
32
4.9000
13
75.7000
23
140.0000
33
4.9000
0
3DFACE
8
RF
10
75.7000
20
126.0000
30
4.8000
11
80.7000
21
126.0000
31
4.8000
12
80.7000
22
126.0000
32
4.9000
13
75.7000
23
126.0000
33
4.9000
0
3DFACE
8
RF
10
80.7000
20
126.0000
30
4.8000
11
80.7000
21
140.0000
31
4.8000
12
80.7000
22
140.0000
32
4.9000
13
80.7000
23
126.0000
33
4.9000
0
3DFACE
8
RF
10
80.7000
20
140.0000
30
4.8000
11
75.7000
21
140.0000
31
4.8000
12
75.7000
22
140.0000
32
4.9000
13
80.7000
23
140.0000
33
4.9000
0
3DFACE
8
RF
10
75.7000
20
140.0000
30
4.8000
11
75.7000
21
126.0000
31
4.8000
12
75.7000
22
126.0000
32
4.9000
13
75.7000
23
140.0000
33
4.9000
0
TEXT
8
TEXT
10
78.2000
20
133.0000
30
5.9000
40
2.0000
1
RF02
0
3DFACE
8
POWER
10
61.0000
20
141.0000
30
1.0000
11
64.0000
21
141.0000
31
1.0000
12
64.0000
22
151.0000
32
1.0000
13
61.0000
23
151.0000
33
1.0000
0
3DFACE
8
POWER
10
61.0000
20
141.0000
30
2.0000
11
64.0000
21
141.0000
31
2.0000
12
64.0000
22
151.0000
32
2.0000
13
61.0000
23
151.0000
33
2.0000
0
3DFACE
8
POWER
10
61.0000
20
141.0000
30
1.0000
11
64.0000
21
141.0000
31
1.0000
12
64.0000
22
141.0000
32
2.0000
13
61.0000
23
141.0000
33
2.0000
0
3DFACE
8
POWER
10
64.0000
20
141.0000
30
1.0000
11
64.0000
21
151.0000
31
1.0000
12
64.0000
22
151.0000
32
2.0000
13
64.0000
23
141.0000
33
2.0000
0
3DFACE
8
POWER
10
64.0000
20
151.0000
30
1.0000
11
61.0000
21
151.0000
31
1.0000
12
61.0000
22
151.0000
32
2.0000
13
64.0000
23
151.0000
33
2.0000
0
3DFACE
8
POWER
10
61.0000
20
151.0000
30
1.0000
11
61.0000
21
141.0000
31
1.0000
12
61.0000
22
141.0000
32
2.0000
13
61.0000
23
151.0000
33
2.0000
0
TEXT
8
TEXT
10
62.5000
20
146.0000
30
3.0000
40
2.0000
1
J01
0
3DFACE
8
SHELL
10
-71.0000
20
10.0000
30
1.0000
11
-58.0000
21
10.0000
31
1.0000
12
-58.0000
22
56.0000
32
1.0000
13
-71.0000
23
56.0000
33
1.0000
0
3DFACE
8
SHELL
10
-71.0000
20
10.0000
30
2.0000
11
-58.0000
21
10.0000
31
2.0000
12
-58.0000
22
56.0000
32
2.0000
13
-71.0000
23
56.0000
33
2.0000
0
3DFACE
8
SHELL
10
-71.0000
20
10.0000
30
1.0000
11
-58.0000
21
10.0000
31
1.0000
12
-58.0000
22
10.0000
32
2.0000
13
-71.0000
23
10.0000
33
2.0000
0
3DFACE
8
SHELL
10
-58.0000
20
10.0000
30
1.0000
11
-58.0000
21
56.0000
31
1.0000
12
-58.0000
22
56.0000
32
2.0000
13
-58.0000
23
10.0000
33
2.0000
0
3DFACE
8
SHELL
10
-58.0000
20
56.0000
30
1.0000
11
-71.0000
21
56.0000
31
1.0000
12
-71.0000
22
56.0000
32
2.0000
13
-58.0000
23
56.0000
33
2.0000
0
3DFACE
8
SHELL
10
-71.0000
20
56.0000
30
1.0000
11
-71.0000
21
10.0000
31
1.0000
12
-71.0000
22
10.0000
32
2.0000
13
-71.0000
23
56.0000
33
2.0000
0
TEXT
8
TEXT
10
-64.5000
20
33.0000
30
3.0000
40
2.0000
1
L-PCB
0
3DFACE
8
COMPUTE
10
-75.0000
20
13.0000
30
2.0000
11
-69.0000
21
13.0000
31
2.0000
12
-69.0000
22
19.0000
32
2.0000
13
-75.0000
23
19.0000
33
2.0000
0
3DFACE
8
COMPUTE
10
-75.0000
20
13.0000
30
2.8500
11
-69.0000
21
13.0000
31
2.8500
12
-69.0000
22
19.0000
32
2.8500
13
-75.0000
23
19.0000
33
2.8500
0
3DFACE
8
COMPUTE
10
-75.0000
20
13.0000
30
2.0000
11
-69.0000
21
13.0000
31
2.0000
12
-69.0000
22
13.0000
32
2.8500
13
-75.0000
23
13.0000
33
2.8500
0
3DFACE
8
COMPUTE
10
-69.0000
20
13.0000
30
2.0000
11
-69.0000
21
19.0000
31
2.0000
12
-69.0000
22
19.0000
32
2.8500
13
-69.0000
23
13.0000
33
2.8500
0
3DFACE
8
COMPUTE
10
-69.0000
20
19.0000
30
2.0000
11
-75.0000
21
19.0000
31
2.0000
12
-75.0000
22
19.0000
32
2.8500
13
-69.0000
23
19.0000
33
2.8500
0
3DFACE
8
COMPUTE
10
-75.0000
20
19.0000
30
2.0000
11
-75.0000
21
13.0000
31
2.0000
12
-75.0000
22
13.0000
32
2.8500
13
-75.0000
23
19.0000
33
2.8500
0
TEXT
8
TEXT
10
-72.0000
20
16.0000
30
3.8500
40
2.0000
1
A01
0
3DFACE
8
POWER
10
-75.0000
20
23.0000
30
2.0000
11
-70.0000
21
23.0000
31
2.0000
12
-70.0000
22
28.0000
32
2.0000
13
-75.0000
23
28.0000
33
2.0000
0
3DFACE
8
POWER
10
-75.0000
20
23.0000
30
2.9000
11
-70.0000
21
23.0000
31
2.9000
12
-70.0000
22
28.0000
32
2.9000
13
-75.0000
23
28.0000
33
2.9000
0
3DFACE
8
POWER
10
-75.0000
20
23.0000
30
2.0000
11
-70.0000
21
23.0000
31
2.0000
12
-70.0000
22
23.0000
32
2.9000
13
-75.0000
23
23.0000
33
2.9000
0
3DFACE
8
POWER
10
-70.0000
20
23.0000
30
2.0000
11
-70.0000
21
28.0000
31
2.0000
12
-70.0000
22
28.0000
32
2.9000
13
-70.0000
23
23.0000
33
2.9000
0
3DFACE
8
POWER
10
-70.0000
20
28.0000
30
2.0000
11
-75.0000
21
28.0000
31
2.0000
12
-75.0000
22
28.0000
32
2.9000
13
-70.0000
23
28.0000
33
2.9000
0
3DFACE
8
POWER
10
-75.0000
20
28.0000
30
2.0000
11
-75.0000
21
23.0000
31
2.0000
12
-75.0000
22
23.0000
32
2.9000
13
-75.0000
23
28.0000
33
2.9000
0
TEXT
8
TEXT
10
-72.5000
20
25.5000
30
3.9000
40
2.0000
1
A02
0
3DFACE
8
TBD
10
-75.0000
20
33.0000
30
2.0000
11
-70.0000
21
33.0000
31
2.0000
12
-70.0000
22
38.0000
32
2.0000
13
-75.0000
23
38.0000
33
2.0000
0
3DFACE
8
TBD
10
-75.0000
20
33.0000
30
2.9000
11
-70.0000
21
33.0000
31
2.9000
12
-70.0000
22
38.0000
32
2.9000
13
-75.0000
23
38.0000
33
2.9000
0
3DFACE
8
TBD
10
-75.0000
20
33.0000
30
2.0000
11
-70.0000
21
33.0000
31
2.0000
12
-70.0000
22
33.0000
32
2.9000
13
-75.0000
23
33.0000
33
2.9000
0
3DFACE
8
TBD
10
-70.0000
20
33.0000
30
2.0000
11
-70.0000
21
38.0000
31
2.0000
12
-70.0000
22
38.0000
32
2.9000
13
-70.0000
23
33.0000
33
2.9000
0
3DFACE
8
TBD
10
-70.0000
20
38.0000
30
2.0000
11
-75.0000
21
38.0000
31
2.0000
12
-75.0000
22
38.0000
32
2.9000
13
-70.0000
23
38.0000
33
2.9000
0
3DFACE
8
TBD
10
-75.0000
20
38.0000
30
2.0000
11
-75.0000
21
33.0000
31
2.0000
12
-75.0000
22
33.0000
32
2.9000
13
-75.0000
23
38.0000
33
2.9000
0
TEXT
8
TEXT
10
-72.5000
20
35.5000
30
3.9000
40
2.0000
1
A03
0
3DFACE
8
COMPUTE
10
-76.0000
20
43.0000
30
2.0000
11
-73.0000
21
43.0000
31
2.0000
12
-73.0000
22
45.5000
32
2.0000
13
-76.0000
23
45.5000
33
2.0000
0
3DFACE
8
COMPUTE
10
-76.0000
20
43.0000
30
2.8000
11
-73.0000
21
43.0000
31
2.8000
12
-73.0000
22
45.5000
32
2.8000
13
-76.0000
23
45.5000
33
2.8000
0
3DFACE
8
COMPUTE
10
-76.0000
20
43.0000
30
2.0000
11
-73.0000
21
43.0000
31
2.0000
12
-73.0000
22
43.0000
32
2.8000
13
-76.0000
23
43.0000
33
2.8000
0
3DFACE
8
COMPUTE
10
-73.0000
20
43.0000
30
2.0000
11
-73.0000
21
45.5000
31
2.0000
12
-73.0000
22
45.5000
32
2.8000
13
-73.0000
23
43.0000
33
2.8000
0
3DFACE
8
COMPUTE
10
-73.0000
20
45.5000
30
2.0000
11
-76.0000
21
45.5000
31
2.0000
12
-76.0000
22
45.5000
32
2.8000
13
-73.0000
23
45.5000
33
2.8000
0
3DFACE
8
COMPUTE
10
-76.0000
20
45.5000
30
2.0000
11
-76.0000
21
43.0000
31
2.0000
12
-76.0000
22
43.0000
32
2.8000
13
-76.0000
23
45.5000
33
2.8000
0
TEXT
8
TEXT
10
-74.5000
20
44.2500
30
3.8000
40
2.0000
1
A04
0
3DFACE
8
BATTERY
10
-71.0000
20
61.0000
30
1.0000
11
-58.2000
21
61.0000
31
1.0000
12
-58.2000
22
131.0000
32
1.0000
13
-71.0000
23
131.0000
33
1.0000
0
3DFACE
8
BATTERY
10
-71.0000
20
61.0000
30
6.6000
11
-58.2000
21
61.0000
31
6.6000
12
-58.2000
22
131.0000
32
6.6000
13
-71.0000
23
131.0000
33
6.6000
0
3DFACE
8
BATTERY
10
-71.0000
20
61.0000
30
1.0000
11
-58.2000
21
61.0000
31
1.0000
12
-58.2000
22
61.0000
32
6.6000
13
-71.0000
23
61.0000
33
6.6000
0
3DFACE
8
BATTERY
10
-58.2000
20
61.0000
30
1.0000
11
-58.2000
21
131.0000
31
1.0000
12
-58.2000
22
131.0000
32
6.6000
13
-58.2000
23
61.0000
33
6.6000
0
3DFACE
8
BATTERY
10
-58.2000
20
131.0000
30
1.0000
11
-71.0000
21
131.0000
31
1.0000
12
-71.0000
22
131.0000
32
6.6000
13
-58.2000
23
131.0000
33
6.6000
0
3DFACE
8
BATTERY
10
-71.0000
20
131.0000
30
1.0000
11
-71.0000
21
61.0000
31
1.0000
12
-71.0000
22
61.0000
32
6.6000
13
-71.0000
23
131.0000
33
6.6000
0
TEXT
8
TEXT
10
-64.6000
20
96.0000
30
7.6000
40
2.0000
1
BAT-L
0
3DFACE
8
COMPUTE
10
-71.0000
20
134.0000
30
1.0000
11
-68.0000
21
134.0000
31
1.0000
12
-68.0000
22
143.0000
32
1.0000
13
-71.0000
23
143.0000
33
1.0000
0
3DFACE
8
COMPUTE
10
-71.0000
20
134.0000
30
2.0000
11
-68.0000
21
134.0000
31
2.0000
12
-68.0000
22
143.0000
32
2.0000
13
-71.0000
23
143.0000
33
2.0000
0
3DFACE
8
COMPUTE
10
-71.0000
20
134.0000
30
1.0000
11
-68.0000
21
134.0000
31
1.0000
12
-68.0000
22
134.0000
32
2.0000
13
-71.0000
23
134.0000
33
2.0000
0
3DFACE
8
COMPUTE
10
-68.0000
20
134.0000
30
1.0000
11
-68.0000
21
143.0000
31
1.0000
12
-68.0000
22
143.0000
32
2.0000
13
-68.0000
23
134.0000
33
2.0000
0
3DFACE
8
COMPUTE
10
-68.0000
20
143.0000
30
1.0000
11
-71.0000
21
143.0000
31
1.0000
12
-71.0000
22
143.0000
32
2.0000
13
-68.0000
23
143.0000
33
2.0000
0
3DFACE
8
COMPUTE
10
-71.0000
20
143.0000
30
1.0000
11
-71.0000
21
134.0000
31
1.0000
12
-71.0000
22
134.0000
32
2.0000
13
-71.0000
23
143.0000
33
2.0000
0
TEXT
8
TEXT
10
-69.5000
20
138.5000
30
3.0000
40
2.0000
1
J02
0
3DFACE
8
TBD
10
-7.5000
20
-8.0000
30
9.0000
11
7.5000
21
-8.0000
31
9.0000
12
7.5000
22
7.0000
32
9.0000
13
-7.5000
23
7.0000
33
9.0000
0
3DFACE
8
TBD
10
-7.5000
20
-8.0000
30
18.5000
11
7.5000
21
-8.0000
31
18.5000
12
7.5000
22
7.0000
32
18.5000
13
-7.5000
23
7.0000
33
18.5000
0
3DFACE
8
TBD
10
-7.5000
20
-8.0000
30
9.0000
11
7.5000
21
-8.0000
31
9.0000
12
7.5000
22
-8.0000
32
18.5000
13
-7.5000
23
-8.0000
33
18.5000
0
3DFACE
8
TBD
10
7.5000
20
-8.0000
30
9.0000
11
7.5000
21
7.0000
31
9.0000
12
7.5000
22
7.0000
32
18.5000
13
7.5000
23
-8.0000
33
18.5000
0
3DFACE
8
TBD
10
7.5000
20
7.0000
30
9.0000
11
-7.5000
21
7.0000
31
9.0000
12
-7.5000
22
7.0000
32
18.5000
13
7.5000
23
7.0000
33
18.5000
0
3DFACE
8
TBD
10
-7.5000
20
7.0000
30
9.0000
11
-7.5000
21
-8.0000
31
9.0000
12
-7.5000
22
-8.0000
32
18.5000
13
-7.5000
23
7.0000
33
18.5000
0
TEXT
8
TEXT
10
0.0000
20
-0.5000
30
19.5000
40
2.0000
1
CAM01
0
3DFACE
8
TBD
10
-10.5000
20
-8.0000
30
9.0000
11
0.9000
21
-8.0000
31
9.0000
12
0.9000
22
-4.8000
32
9.0000
13
-10.5000
23
-4.8000
33
9.0000
0
3DFACE
8
TBD
10
-10.5000
20
-8.0000
30
10.0000
11
0.9000
21
-8.0000
31
10.0000
12
0.9000
22
-4.8000
32
10.0000
13
-10.5000
23
-4.8000
33
10.0000
0
3DFACE
8
TBD
10
-10.5000
20
-8.0000
30
9.0000
11
0.9000
21
-8.0000
31
9.0000
12
0.9000
22
-8.0000
32
10.0000
13
-10.5000
23
-8.0000
33
10.0000
0
3DFACE
8
TBD
10
0.9000
20
-8.0000
30
9.0000
11
0.9000
21
-4.8000
31
9.0000
12
0.9000
22
-4.8000
32
10.0000
13
0.9000
23
-8.0000
33
10.0000
0
3DFACE
8
TBD
10
0.9000
20
-4.8000
30
9.0000
11
-10.5000
21
-4.8000
31
9.0000
12
-10.5000
22
-4.8000
32
10.0000
13
0.9000
23
-4.8000
33
10.0000
0
3DFACE
8
TBD
10
-10.5000
20
-4.8000
30
9.0000
11
-10.5000
21
-8.0000
31
9.0000
12
-10.5000
22
-8.0000
32
10.0000
13
-10.5000
23
-4.8000
33
10.0000
0
TEXT
8
TEXT
10
-4.8000
20
-6.4000
30
11.0000
40
2.0000
1
J03
0
3DFACE
8
AUDIO
10
-24.5000
20
-8.0000
30
9.0000
11
-21.0000
21
-8.0000
31
9.0000
12
-21.0000
22
-5.3500
32
9.0000
13
-24.5000
23
-5.3500
33
9.0000
0
3DFACE
8
AUDIO
10
-24.5000
20
-8.0000
30
9.9800
11
-21.0000
21
-8.0000
31
9.9800
12
-21.0000
22
-5.3500
32
9.9800
13
-24.5000
23
-5.3500
33
9.9800
0
3DFACE
8
AUDIO
10
-24.5000
20
-8.0000
30
9.0000
11
-21.0000
21
-8.0000
31
9.0000
12
-21.0000
22
-8.0000
32
9.9800
13
-24.5000
23
-8.0000
33
9.9800
0
3DFACE
8
AUDIO
10
-21.0000
20
-8.0000
30
9.0000
11
-21.0000
21
-5.3500
31
9.0000
12
-21.0000
22
-5.3500
32
9.9800
13
-21.0000
23
-8.0000
33
9.9800
0
3DFACE
8
AUDIO
10
-21.0000
20
-5.3500
30
9.0000
11
-24.5000
21
-5.3500
31
9.0000
12
-24.5000
22
-5.3500
32
9.9800
13
-21.0000
23
-5.3500
33
9.9800
0
3DFACE
8
AUDIO
10
-24.5000
20
-5.3500
30
9.0000
11
-24.5000
21
-8.0000
31
9.0000
12
-24.5000
22
-8.0000
32
9.9800
13
-24.5000
23
-5.3500
33
9.9800
0
TEXT
8
TEXT
10
-22.7500
20
-6.6750
30
10.9800
40
2.0000
1
MIC1
0
3DFACE
8
AUDIO
10
4.5000
20
-8.0000
30
9.0000
11
8.0000
21
-8.0000
31
9.0000
12
8.0000
22
-5.3500
32
9.0000
13
4.5000
23
-5.3500
33
9.0000
0
3DFACE
8
AUDIO
10
4.5000
20
-8.0000
30
9.9800
11
8.0000
21
-8.0000
31
9.9800
12
8.0000
22
-5.3500
32
9.9800
13
4.5000
23
-5.3500
33
9.9800
0
3DFACE
8
AUDIO
10
4.5000
20
-8.0000
30
9.0000
11
8.0000
21
-8.0000
31
9.0000
12
8.0000
22
-8.0000
32
9.9800
13
4.5000
23
-8.0000
33
9.9800
0
3DFACE
8
AUDIO
10
8.0000
20
-8.0000
30
9.0000
11
8.0000
21
-5.3500
31
9.0000
12
8.0000
22
-5.3500
32
9.9800
13
8.0000
23
-8.0000
33
9.9800
0
3DFACE
8
AUDIO
10
8.0000
20
-5.3500
30
9.0000
11
4.5000
21
-5.3500
31
9.0000
12
4.5000
22
-5.3500
32
9.9800
13
8.0000
23
-5.3500
33
9.9800
0
3DFACE
8
AUDIO
10
4.5000
20
-5.3500
30
9.0000
11
4.5000
21
-8.0000
31
9.0000
12
4.5000
22
-8.0000
32
9.9800
13
4.5000
23
-5.3500
33
9.9800
0
TEXT
8
TEXT
10
6.2500
20
-6.6750
30
10.9800
40
2.0000
1
MIC2
0
3DFACE
8
AUDIO
10
21.5000
20
-8.0000
30
9.0000
11
25.0000
21
-8.0000
31
9.0000
12
25.0000
22
-5.3500
32
9.0000
13
21.5000
23
-5.3500
33
9.0000
0
3DFACE
8
AUDIO
10
21.5000
20
-8.0000
30
9.9800
11
25.0000
21
-8.0000
31
9.9800
12
25.0000
22
-5.3500
32
9.9800
13
21.5000
23
-5.3500
33
9.9800
0
3DFACE
8
AUDIO
10
21.5000
20
-8.0000
30
9.0000
11
25.0000
21
-8.0000
31
9.0000
12
25.0000
22
-8.0000
32
9.9800
13
21.5000
23
-8.0000
33
9.9800
0
3DFACE
8
AUDIO
10
25.0000
20
-8.0000
30
9.0000
11
25.0000
21
-5.3500
31
9.0000
12
25.0000
22
-5.3500
32
9.9800
13
25.0000
23
-8.0000
33
9.9800
0
3DFACE
8
AUDIO
10
25.0000
20
-5.3500
30
9.0000
11
21.5000
21
-5.3500
31
9.0000
12
21.5000
22
-5.3500
32
9.9800
13
25.0000
23
-5.3500
33
9.9800
0
3DFACE
8
AUDIO
10
21.5000
20
-5.3500
30
9.0000
11
21.5000
21
-8.0000
31
9.0000
12
21.5000
22
-8.0000
32
9.9800
13
21.5000
23
-5.3500
33
9.9800
0
TEXT
8
TEXT
10
23.2500
20
-6.6750
30
10.9800
40
2.0000
1
MIC3
0
ENDSEC
0
EOF
