0
SECTION
2
HEADER
9
$ACADVER
1
AC1027
9
$INSUNITS
70
4
0
ENDSEC
0
SECTION
2
TABLES
0
TABLE
2
LAYER
70
10
0
LAYER
2
SHELL
70
0
62
8
6
CONTINUOUS
0
LAYER
2
COMPUTE
70
0
62
140
6
CONTINUOUS
0
LAYER
2
POWER
70
0
62
200
6
CONTINUOUS
0
LAYER
2
RF
70
0
62
94
6
CONTINUOUS
0
LAYER
2
AUDIO
70
0
62
50
6
CONTINUOUS
0
LAYER
2
BATTERY
70
0
62
1
6
CONTINUOUS
0
LAYER
2
TBD
70
0
62
30
6
CONTINUOUS
0
LAYER
2
KEEP_OUT
70
0
62
3
6
CONTINUOUS
0
LAYER
2
DIM
70
0
62
7
6
CONTINUOUS
0
LAYER
2
TEXT
70
0
62
7
6
CONTINUOUS
0
ENDTAB
0
ENDSEC
0
SECTION
2
ENTITIES
0
TEXT
8
TEXT
10
0.0000
20
240.0000
30
0.0000
40
4.0000
1
AI Glasses Chip-down EVT V2.0 - AutoCAD 2D floorplan, units=mm
0
TEXT
8
TEXT
10
0.0000
20
233.0000
30
0.0000
40
2.5000
1
Solid edges=candidate/frozen envelope; orange/TBD layer=NOT RELEASED FOR TOOLING; no hinge electrical interconnect in EVT V2.0
0
TEXT
8
TEXT
10
0.0000
20
197.0000
30
0.0000
40
3.0000
1
Right temple top - local compute pod + narrow rear
0
LINE
8
SHELL
10
0.0000
20
170.0000
30
0.0000
11
70.0000
21
170.0000
31
0.0000
0
LINE
8
SHELL
10
70.0000
20
170.0000
30
0.0000
11
70.0000
21
190.0000
31
0.0000
0
LINE
8
SHELL
10
70.0000
20
190.0000
30
0.0000
11
0.0000
21
190.0000
31
0.0000
0
LINE
8
SHELL
10
0.0000
20
190.0000
30
0.0000
11
0.0000
21
170.0000
31
0.0000
0
LINE
8
SHELL
10
88.0000
20
170.0000
30
0.0000
11
150.0000
21
170.0000
31
0.0000
0
LINE
8
SHELL
10
150.0000
20
170.0000
30
0.0000
11
150.0000
21
185.0000
31
0.0000
0
LINE
8
SHELL
10
150.0000
20
185.0000
30
0.0000
11
88.0000
21
185.0000
31
0.0000
0
LINE
8
SHELL
10
88.0000
20
185.0000
30
0.0000
11
88.0000
21
170.0000
31
0.0000
0
LINE
8
SHELL
10
70.0000
20
170.0000
30
0.0000
11
88.0000
21
170.0000
31
0.0000
0
LINE
8
SHELL
10
70.0000
20
190.0000
30
0.0000
11
88.0000
21
185.0000
31
0.0000
0
LINE
8
SHELL
10
8.0000
20
171.0000
30
0.0000
11
70.0000
21
171.0000
31
0.0000
0
LINE
8
SHELL
10
70.0000
20
171.0000
30
0.0000
11
70.0000
21
189.0000
31
0.0000
0
LINE
8
SHELL
10
70.0000
20
189.0000
30
0.0000
11
8.0000
21
189.0000
31
0.0000
0
LINE
8
SHELL
10
8.0000
20
189.0000
30
0.0000
11
8.0000
21
171.0000
31
0.0000
0
TEXT
8
TEXT
10
8.8000
20
180.0000
30
0.0000
40
1.6000
1
R-PCB
0
LINE
8
TBD
10
11.0000
20
171.6000
30
0.0000
11
27.1000
21
171.6000
31
0.0000
0
LINE
8
TBD
10
27.1000
20
171.6000
30
0.0000
11
27.1000
21
188.8000
31
0.0000
0
LINE
8
TBD
10
27.1000
20
188.8000
30
0.0000
11
11.0000
21
188.8000
31
0.0000
0
LINE
8
TBD
10
11.0000
20
188.8000
30
0.0000
11
11.0000
21
171.6000
31
0.0000
0
TEXT
8
TEXT
10
11.8000
20
180.2000
30
0.0000
40
1.6000
1
C01
0
LINE
8
TBD
10
29.5000
20
174.0000
30
0.0000
11
41.0000
21
174.0000
31
0.0000
0
LINE
8
TBD
10
41.0000
20
174.0000
30
0.0000
11
41.0000
21
184.0000
31
0.0000
0
LINE
8
TBD
10
41.0000
20
184.0000
30
0.0000
11
29.5000
21
184.0000
31
0.0000
0
LINE
8
TBD
10
29.5000
20
184.0000
30
0.0000
11
29.5000
21
174.0000
31
0.0000
0
TEXT
8
TEXT
10
30.3000
20
179.0000
30
0.0000
40
1.6000
1
C02
0
LINE
8
COMPUTE
10
43.0000
20
173.0000
30
0.0000
11
50.0000
21
173.0000
31
0.0000
0
LINE
8
COMPUTE
10
50.0000
20
173.0000
30
0.0000
11
50.0000
21
180.0000
31
0.0000
0
LINE
8
COMPUTE
10
50.0000
20
180.0000
30
0.0000
11
43.0000
21
180.0000
31
0.0000
0
LINE
8
COMPUTE
10
43.0000
20
180.0000
30
0.0000
11
43.0000
21
173.0000
31
0.0000
0
TEXT
8
TEXT
10
43.8000
20
176.5000
30
0.0000
40
1.6000
1
C03
0
LINE
8
COMPUTE
10
52.0000
20
173.0000
30
0.0000
11
63.5000
21
173.0000
31
0.0000
0
LINE
8
COMPUTE
10
63.5000
20
173.0000
30
0.0000
11
63.5000
21
186.0000
31
0.0000
0
LINE
8
COMPUTE
10
63.5000
20
186.0000
30
0.0000
11
52.0000
21
186.0000
31
0.0000
0
LINE
8
COMPUTE
10
52.0000
20
186.0000
30
0.0000
11
52.0000
21
173.0000
31
0.0000
0
TEXT
8
TEXT
10
52.8000
20
179.5000
30
0.0000
40
1.6000
1
C04
0
LINE
8
POWER
10
32.0000
20
182.8000
30
0.0000
11
36.5000
21
182.8000
31
0.0000
0
LINE
8
POWER
10
36.5000
20
182.8000
30
0.0000
11
36.5000
21
187.3000
31
0.0000
0
LINE
8
POWER
10
36.5000
20
187.3000
30
0.0000
11
32.0000
21
187.3000
31
0.0000
0
LINE
8
POWER
10
32.0000
20
187.3000
30
0.0000
11
32.0000
21
182.8000
31
0.0000
0
TEXT
8
TEXT
10
32.8000
20
185.0500
30
0.0000
40
1.6000
1
P01
0
LINE
8
POWER
10
50.0000
20
183.5000
30
0.0000
11
54.5000
21
183.5000
31
0.0000
0
LINE
8
POWER
10
54.5000
20
183.5000
30
0.0000
11
54.5000
21
187.0000
31
0.0000
0
LINE
8
POWER
10
54.5000
20
187.0000
30
0.0000
11
50.0000
21
187.0000
31
0.0000
0
LINE
8
POWER
10
50.0000
20
187.0000
30
0.0000
11
50.0000
21
183.5000
31
0.0000
0
TEXT
8
TEXT
10
50.8000
20
185.2500
30
0.0000
40
1.6000
1
P02
0
LINE
8
POWER
10
56.0000
20
182.5000
30
0.0000
11
60.0000
21
182.5000
31
0.0000
0
LINE
8
POWER
10
60.0000
20
182.5000
30
0.0000
11
60.0000
21
186.5000
31
0.0000
0
LINE
8
POWER
10
60.0000
20
186.5000
30
0.0000
11
56.0000
21
186.5000
31
0.0000
0
LINE
8
POWER
10
56.0000
20
186.5000
30
0.0000
11
56.0000
21
182.5000
31
0.0000
0
TEXT
8
TEXT
10
56.8000
20
184.5000
30
0.0000
40
1.6000
1
P03
0
LINE
8
TBD
10
11.5000
20
170.2000
30
0.0000
11
14.7000
21
170.2000
31
0.0000
0
LINE
8
TBD
10
14.7000
20
170.2000
30
0.0000
11
14.7000
21
172.7000
31
0.0000
0
LINE
8
TBD
10
14.7000
20
172.7000
30
0.0000
11
11.5000
21
172.7000
31
0.0000
0
LINE
8
TBD
10
11.5000
20
172.7000
30
0.0000
11
11.5000
21
170.2000
31
0.0000
0
TEXT
8
TEXT
10
12.3000
20
171.4500
30
0.0000
40
1.6000
1
P04
0
LINE
8
RF
10
36.0000
20
171.8000
30
0.0000
11
49.0000
21
171.8000
31
0.0000
0
LINE
8
RF
10
49.0000
20
171.8000
30
0.0000
11
49.0000
21
184.0000
31
0.0000
0
LINE
8
RF
10
49.0000
20
184.0000
30
0.0000
11
36.0000
21
184.0000
31
0.0000
0
LINE
8
RF
10
36.0000
20
184.0000
30
0.0000
11
36.0000
21
171.8000
31
0.0000
0
TEXT
8
TEXT
10
36.8000
20
177.9000
30
0.0000
40
1.6000
1
RF01
0
LINE
8
TBD
10
34.0000
20
171.2000
30
0.0000
11
64.0000
21
171.2000
31
0.0000
0
LINE
8
TBD
10
64.0000
20
171.2000
30
0.0000
11
64.0000
21
185.2000
31
0.0000
0
LINE
8
TBD
10
64.0000
20
185.2000
30
0.0000
11
34.0000
21
185.2000
31
0.0000
0
LINE
8
TBD
10
34.0000
20
185.2000
30
0.0000
11
34.0000
21
171.2000
31
0.0000
0
TEXT
8
TEXT
10
34.8000
20
178.2000
30
0.0000
40
1.6000
1
SH01
0
LINE
8
BATTERY
10
76.0000
20
171.0000
30
0.0000
11
146.0000
21
171.0000
31
0.0000
0
LINE
8
BATTERY
10
146.0000
20
171.0000
30
0.0000
11
146.0000
21
183.8000
31
0.0000
0
LINE
8
BATTERY
10
146.0000
20
183.8000
30
0.0000
11
76.0000
21
183.8000
31
0.0000
0
LINE
8
BATTERY
10
76.0000
20
183.8000
30
0.0000
11
76.0000
21
171.0000
31
0.0000
0
TEXT
8
TEXT
10
76.8000
20
177.4000
30
0.0000
40
1.6000
1
BAT-R
0
LINE
8
AUDIO
10
108.0000
20
170.6000
30
0.0000
11
123.0000
21
170.6000
31
0.0000
0
LINE
8
AUDIO
10
123.0000
20
170.6000
30
0.0000
11
123.0000
21
181.6000
31
0.0000
0
LINE
8
AUDIO
10
123.0000
20
181.6000
30
0.0000
11
108.0000
21
181.6000
31
0.0000
0
LINE
8
AUDIO
10
108.0000
20
181.6000
30
0.0000
11
108.0000
21
170.6000
31
0.0000
0
TEXT
8
TEXT
10
108.8000
20
176.1000
30
0.0000
40
1.6000
1
SPK-R
0
LINE
8
RF
10
126.0000
20
185.7000
30
0.0000
11
140.0000
21
185.7000
31
0.0000
0
LINE
8
RF
10
140.0000
20
185.7000
30
0.0000
11
140.0000
21
190.7000
31
0.0000
0
LINE
8
RF
10
140.0000
20
190.7000
30
0.0000
11
126.0000
21
190.7000
31
0.0000
0
LINE
8
RF
10
126.0000
20
190.7000
30
0.0000
11
126.0000
21
185.7000
31
0.0000
0
TEXT
8
TEXT
10
126.8000
20
188.2000
30
0.0000
40
1.6000
1
RF02
0
LINE
8
POWER
10
141.0000
20
171.0000
30
0.0000
11
151.0000
21
171.0000
31
0.0000
0
LINE
8
POWER
10
151.0000
20
171.0000
30
0.0000
11
151.0000
21
174.0000
31
0.0000
0
LINE
8
POWER
10
151.0000
20
174.0000
30
0.0000
11
141.0000
21
174.0000
31
0.0000
0
LINE
8
POWER
10
141.0000
20
174.0000
30
0.0000
11
141.0000
21
171.0000
31
0.0000
0
TEXT
8
TEXT
10
141.8000
20
172.5000
30
0.0000
40
1.6000
1
J01
0
LINE
8
KEEP_OUT
10
124.0000
20
184.8000
30
0.0000
11
147.0000
21
184.8000
31
0.0000
0
LINE
8
KEEP_OUT
10
147.0000
20
184.8000
30
0.0000
11
147.0000
21
191.0000
31
0.0000
0
LINE
8
KEEP_OUT
10
147.0000
20
191.0000
30
0.0000
11
124.0000
21
191.0000
31
0.0000
0
LINE
8
KEEP_OUT
10
124.0000
20
191.0000
30
0.0000
11
124.0000
21
184.8000
31
0.0000
0
LINE
8
BATTERY
10
74.0000
20
170.5000
30
0.0000
11
149.0000
21
170.5000
31
0.0000
0
LINE
8
BATTERY
10
149.0000
20
170.5000
30
0.0000
11
149.0000
21
184.5000
31
0.0000
0
LINE
8
BATTERY
10
149.0000
20
184.5000
30
0.0000
11
74.0000
21
184.5000
31
0.0000
0
LINE
8
BATTERY
10
74.0000
20
184.5000
30
0.0000
11
74.0000
21
170.5000
31
0.0000
0
TEXT
8
TEXT
10
74.0000
20
165.0000
30
0.0000
40
2.0000
1
BAT keep-out: no RK3576/RK806/TPS61088/boost inductor under pack
0
LINE
8
DIM
10
0.0000
20
193.0000
30
0.0000
11
70.0000
21
193.0000
31
0.0000
0
TEXT
8
DIM
10
20.0000
20
194.0000
30
0.0000
40
2.0000
1
70 mm wide compute pod section
0
LINE
8
DIM
10
88.0000
20
188.0000
30
0.0000
11
150.0000
21
188.0000
31
0.0000
0
TEXT
8
DIM
10
104.0000
20
189.0000
30
0.0000
40
2.0000
1
62 mm narrow rear target
0
TEXT
8
TEXT
10
0.0000
20
137.0000
30
0.0000
40
3.0000
1
Left temple top - AON side 15 mm straight target
0
LINE
8
SHELL
10
0.0000
20
115.0000
30
0.0000
11
145.0000
21
115.0000
31
0.0000
0
LINE
8
SHELL
10
145.0000
20
115.0000
30
0.0000
11
145.0000
21
130.0000
31
0.0000
0
LINE
8
SHELL
10
145.0000
20
130.0000
30
0.0000
11
0.0000
21
130.0000
31
0.0000
0
LINE
8
SHELL
10
0.0000
20
130.0000
30
0.0000
11
0.0000
21
115.0000
31
0.0000
0
LINE
8
SHELL
10
10.0000
20
116.0000
30
0.0000
11
56.0000
21
116.0000
31
0.0000
0
LINE
8
SHELL
10
56.0000
20
116.0000
30
0.0000
11
56.0000
21
129.0000
31
0.0000
0
LINE
8
SHELL
10
56.0000
20
129.0000
30
0.0000
11
10.0000
21
129.0000
31
0.0000
0
LINE
8
SHELL
10
10.0000
20
129.0000
30
0.0000
11
10.0000
21
116.0000
31
0.0000
0
TEXT
8
TEXT
10
10.8000
20
122.5000
30
0.0000
40
1.6000
1
L-PCB
0
LINE
8
COMPUTE
10
13.0000
20
120.0000
30
0.0000
11
19.0000
21
120.0000
31
0.0000
0
LINE
8
COMPUTE
10
19.0000
20
120.0000
30
0.0000
11
19.0000
21
126.0000
31
0.0000
0
LINE
8
COMPUTE
10
19.0000
20
126.0000
30
0.0000
11
13.0000
21
126.0000
31
0.0000
0
LINE
8
COMPUTE
10
13.0000
20
126.0000
30
0.0000
11
13.0000
21
120.0000
31
0.0000
0
TEXT
8
TEXT
10
13.8000
20
123.0000
30
0.0000
40
1.6000
1
A01
0
LINE
8
POWER
10
23.0000
20
120.0000
30
0.0000
11
28.0000
21
120.0000
31
0.0000
0
LINE
8
POWER
10
28.0000
20
120.0000
30
0.0000
11
28.0000
21
125.0000
31
0.0000
0
LINE
8
POWER
10
28.0000
20
125.0000
30
0.0000
11
23.0000
21
125.0000
31
0.0000
0
LINE
8
POWER
10
23.0000
20
125.0000
30
0.0000
11
23.0000
21
120.0000
31
0.0000
0
TEXT
8
TEXT
10
23.8000
20
122.5000
30
0.0000
40
1.6000
1
A02
0
LINE
8
TBD
10
33.0000
20
120.0000
30
0.0000
11
38.0000
21
120.0000
31
0.0000
0
LINE
8
TBD
10
38.0000
20
120.0000
30
0.0000
11
38.0000
21
125.0000
31
0.0000
0
LINE
8
TBD
10
38.0000
20
125.0000
30
0.0000
11
33.0000
21
125.0000
31
0.0000
0
LINE
8
TBD
10
33.0000
20
125.0000
30
0.0000
11
33.0000
21
120.0000
31
0.0000
0
TEXT
8
TEXT
10
33.8000
20
122.5000
30
0.0000
40
1.6000
1
A03
0
LINE
8
COMPUTE
10
43.0000
20
121.0000
30
0.0000
11
45.5000
21
121.0000
31
0.0000
0
LINE
8
COMPUTE
10
45.5000
20
121.0000
30
0.0000
11
45.5000
21
124.0000
31
0.0000
0
LINE
8
COMPUTE
10
45.5000
20
124.0000
30
0.0000
11
43.0000
21
124.0000
31
0.0000
0
LINE
8
COMPUTE
10
43.0000
20
124.0000
30
0.0000
11
43.0000
21
121.0000
31
0.0000
0
TEXT
8
TEXT
10
43.8000
20
122.5000
30
0.0000
40
1.6000
1
A04
0
LINE
8
BATTERY
10
61.0000
20
116.0000
30
0.0000
11
131.0000
21
116.0000
31
0.0000
0
LINE
8
BATTERY
10
131.0000
20
116.0000
30
0.0000
11
131.0000
21
128.8000
31
0.0000
0
LINE
8
BATTERY
10
131.0000
20
128.8000
30
0.0000
11
61.0000
21
128.8000
31
0.0000
0
LINE
8
BATTERY
10
61.0000
20
128.8000
30
0.0000
11
61.0000
21
116.0000
31
0.0000
0
TEXT
8
TEXT
10
61.8000
20
122.4000
30
0.0000
40
1.6000
1
BAT-L
0
LINE
8
COMPUTE
10
134.0000
20
116.0000
30
0.0000
11
143.0000
21
116.0000
31
0.0000
0
LINE
8
COMPUTE
10
143.0000
20
116.0000
30
0.0000
11
143.0000
21
119.0000
31
0.0000
0
LINE
8
COMPUTE
10
143.0000
20
119.0000
30
0.0000
11
134.0000
21
119.0000
31
0.0000
0
LINE
8
COMPUTE
10
134.0000
20
119.0000
30
0.0000
11
134.0000
21
116.0000
31
0.0000
0
TEXT
8
TEXT
10
134.8000
20
117.5000
30
0.0000
40
1.6000
1
J02
0
LINE
8
DIM
10
0.0000
20
133.0000
30
0.0000
11
145.0000
21
133.0000
31
0.0000
0
TEXT
8
DIM
10
60.0000
20
134.0000
30
0.0000
40
2.0000
1
145 mm usable length / 15 mm internal width
0
TEXT
8
TEXT
10
0.0000
20
92.0000
30
0.0000
40
3.0000
1
Front frame camera/mic region - IMX415 module TBD envelope
0
LINE
8
SHELL
10
0.0000
20
42.0000
30
0.0000
11
135.0000
21
42.0000
31
0.0000
0
LINE
8
SHELL
10
135.0000
20
42.0000
30
0.0000
11
135.0000
21
84.0000
31
0.0000
0
LINE
8
SHELL
10
135.0000
20
84.0000
30
0.0000
11
0.0000
21
84.0000
31
0.0000
0
LINE
8
SHELL
10
0.0000
20
84.0000
30
0.0000
11
0.0000
21
42.0000
31
0.0000
0
LINE
8
SHELL
10
24.0000
20
48.0000
30
0.0000
11
58.0000
21
48.0000
31
0.0000
0
LINE
8
SHELL
10
58.0000
20
48.0000
30
0.0000
11
58.0000
21
74.0000
31
0.0000
0
LINE
8
SHELL
10
58.0000
20
74.0000
30
0.0000
11
24.0000
21
74.0000
31
0.0000
0
LINE
8
SHELL
10
24.0000
20
74.0000
30
0.0000
11
24.0000
21
48.0000
31
0.0000
0
LINE
8
SHELL
10
77.0000
20
48.0000
30
0.0000
11
111.0000
21
48.0000
31
0.0000
0
LINE
8
SHELL
10
111.0000
20
48.0000
30
0.0000
11
111.0000
21
74.0000
31
0.0000
0
LINE
8
SHELL
10
111.0000
20
74.0000
30
0.0000
11
77.0000
21
74.0000
31
0.0000
0
LINE
8
SHELL
10
77.0000
20
74.0000
30
0.0000
11
77.0000
21
48.0000
31
0.0000
0
LINE
8
TBD
10
60.0000
20
52.0000
30
0.0000
11
75.0000
21
52.0000
31
0.0000
0
LINE
8
TBD
10
75.0000
20
52.0000
30
0.0000
11
75.0000
21
67.0000
31
0.0000
0
LINE
8
TBD
10
75.0000
20
67.0000
30
0.0000
11
60.0000
21
67.0000
31
0.0000
0
LINE
8
TBD
10
60.0000
20
67.0000
30
0.0000
11
60.0000
21
52.0000
31
0.0000
0
TEXT
8
TEXT
10
60.8000
20
59.5000
30
0.0000
40
1.5000
1
CAM01
0
LINE
8
TBD
10
57.0000
20
69.0000
30
0.0000
11
68.4000
21
69.0000
31
0.0000
0
LINE
8
TBD
10
68.4000
20
69.0000
30
0.0000
11
68.4000
21
72.2000
31
0.0000
0
LINE
8
TBD
10
68.4000
20
72.2000
30
0.0000
11
57.0000
21
72.2000
31
0.0000
0
LINE
8
TBD
10
57.0000
20
72.2000
30
0.0000
11
57.0000
21
69.0000
31
0.0000
0
TEXT
8
TEXT
10
57.8000
20
70.6000
30
0.0000
40
1.5000
1
J03
0
LINE
8
AUDIO
10
43.0000
20
50.0000
30
0.0000
11
46.5000
21
50.0000
31
0.0000
0
LINE
8
AUDIO
10
46.5000
20
50.0000
30
0.0000
11
46.5000
21
52.6500
31
0.0000
0
LINE
8
AUDIO
10
46.5000
20
52.6500
30
0.0000
11
43.0000
21
52.6500
31
0.0000
0
LINE
8
AUDIO
10
43.0000
20
52.6500
30
0.0000
11
43.0000
21
50.0000
31
0.0000
0
TEXT
8
TEXT
10
43.8000
20
51.3250
30
0.0000
40
1.5000
1
MIC1
0
LINE
8
AUDIO
10
72.0000
20
50.0000
30
0.0000
11
75.5000
21
50.0000
31
0.0000
0
LINE
8
AUDIO
10
75.5000
20
50.0000
30
0.0000
11
75.5000
21
52.6500
31
0.0000
0
LINE
8
AUDIO
10
75.5000
20
52.6500
30
0.0000
11
72.0000
21
52.6500
31
0.0000
0
LINE
8
AUDIO
10
72.0000
20
52.6500
30
0.0000
11
72.0000
21
50.0000
31
0.0000
0
TEXT
8
TEXT
10
72.8000
20
51.3250
30
0.0000
40
1.5000
1
MIC2
0
LINE
8
AUDIO
10
89.0000
20
50.0000
30
0.0000
11
92.5000
21
50.0000
31
0.0000
0
LINE
8
AUDIO
10
92.5000
20
50.0000
30
0.0000
11
92.5000
21
52.6500
31
0.0000
0
LINE
8
AUDIO
10
92.5000
20
52.6500
30
0.0000
11
89.0000
21
52.6500
31
0.0000
0
LINE
8
AUDIO
10
89.0000
20
52.6500
30
0.0000
11
89.0000
21
50.0000
31
0.0000
0
TEXT
8
TEXT
10
89.8000
20
51.3250
30
0.0000
40
1.5000
1
MIC3
0
TEXT
8
TEXT
10
55.0000
20
36.0000
30
0.0000
40
2.0000
1
Hinge electrical interconnect is out of scope for Chip-down EVT V2.0
0
TEXT
8
TEXT
10
170.0000
20
237.0000
30
0.0000
40
3.0000
1
ID legend / dimensions
0
TEXT
8
TEXT
10
170.0000
20
229.0000
30
0.0000
40
1.5500
1
R-PCB PCB-R rigid PCB envelope | 62x18x1.0 | Candidate
0
TEXT
8
TEXT
10
170.0000
20
224.8000
30
0.0000
40
1.5500
1
C01 U1 RK3576 | 16.1x17.2xH TBD | Candidate/HOLD
0
TEXT
8
TEXT
10
170.0000
20
220.6000
30
0.0000
40
1.5500
1
C02 U3 Samsung K4U6E3S4AA-MGCL | TBD package drawing | HOLD
0
TEXT
8
TEXT
10
170.0000
20
216.4000
30
0.0000
40
1.5500
1
C03 U2 RK806S-5 | 7.0x7.0x0.90 | Candidate/HOLD
0
TEXT
8
TEXT
10
170.0000
20
212.2000
30
0.0000
40
1.5500
1
C04 U4 Samsung KLMAG1JENB-B041 | 11.5x13.0x0.8 | Candidate/HOLD
0
TEXT
8
TEXT
10
170.0000
20
208.0000
30
0.0000
40
1.5500
1
P01 U35 BQ25895 | TBD official package | HOLD
0
TEXT
8
TEXT
10
170.0000
20
203.8000
30
0.0000
40
1.5500
1
P02 U6 TPS61088 | 4.5x3.5xH TBD | Candidate/HOLD
0
TEXT
8
TEXT
10
170.0000
20
199.6000
30
0.0000
40
1.5500
1
P03 L1 Coilcraft XGL4020-102MEC | 4.0x4.0x2.0 | Candidate/HOLD
0
TEXT
8
TEXT
10
170.0000
20
195.4000
30
0.0000
40
1.5500
1
P04 Y1 24MHz 10ppm | 3.2x2.5xH TBD | Fit
0
TEXT
8
TEXT
10
170.0000
20
191.2000
30
0.0000
40
1.5500
1
RF01 U11 Quectel FCU760K | 13.0x12.2x2.0 | HOLD
0
TEXT
8
TEXT
10
170.0000
20
187.0000
30
0.0000
40
1.5500
1
TH01 HS1 outer-wall path | 58x0.35x0.2 | Candidate
0
TEXT
8
TEXT
10
170.0000
20
182.8000
30
0.0000
40
1.5500
1
SH01 SH1 RF/PMIC shield TBD | TBD | TBD
0
TEXT
8
TEXT
10
170.0000
20
178.6000
30
0.0000
40
1.5500
1
BAT-R BT1 LP451165 in 1S2P pack | 70x12.8x5.6 max | HOLD
0
TEXT
8
TEXT
10
170.0000
20
174.4000
30
0.0000
40
1.5500
1
SPK-R LS1 CUI CMS-15113-078SP-67 | 15x11x3 | HOLD
0
TEXT
8
TEXT
10
170.0000
20
170.2000
30
0.0000
40
1.5500
1
RF02 J7 Taoglas FXP840.07.0055B | 14x5x0.1 | HOLD
0
TEXT
8
TEXT
10
170.0000
20
166.0000
30
0.0000
40
1.5500
1
J01 J1 CCP P2578MP01-06C180HT | target 10x3x1 | HOLD
0
TEXT
8
TEXT
10
170.0000
20
161.8000
30
0.0000
40
1.5500
1
L-PCB PCB-L rigid PCB envelope | 46x13x1.0 | Candidate
0
TEXT
8
TEXT
10
170.0000
20
157.6000
30
0.0000
40
1.5500
1
A01 U7 nRF54L15-QFN48 | 6x6x0.85 | Fit
0
TEXT
8
TEXT
10
170.0000
20
153.4000
30
0.0000
40
1.5500
1
A02 U8 nPM1300 | 5x5xH TBD | HOLD
0
TEXT
8
TEXT
10
170.0000
20
149.2000
30
0.0000
40
1.5500
1
A03 U9 NDP120 | 5x5xH TBD | HOLD
0
TEXT
8
TEXT
10
170.0000
20
145.0000
30
0.0000
40
1.5500
1
A04 U10 BMI270 | 2.5x3.0x0.8 | Fit
0
TEXT
8
TEXT
10
170.0000
20
140.8000
30
0.0000
40
1.5500
1
BAT-L BT2 LP451165 in 1S2P pack | 70x12.8x5.6 max | HOLD
0
TEXT
8
TEXT
10
170.0000
20
136.6000
30
0.0000
40
1.5500
1
J02 J1-L mechanical keep space | 9x3x1 | Candidate
0
TEXT
8
TEXT
10
170.0000
20
132.4000
30
0.0000
40
1.5500
1
CAM01 U14 Sony IMX415-AAQR-C | sensor PCB <=15x15; total Z <=9.5 target | HOLD/TBD
0
TEXT
8
TEXT
10
170.0000
20
128.2000
30
0.0000
40
1.5500
1
J03 J3 FH26W-33S-0.3SHW(97) | 11.4x3.2x1.0 approx | HOLD
0
TEXT
8
TEXT
10
170.0000
20
124.0000
30
0.0000
40
1.5500
1
MIC1 MK1 T5837 | 3.50x2.65x0.98 | Fit
0
TEXT
8
TEXT
10
170.0000
20
119.8000
30
0.0000
40
1.5500
1
MIC2 MK2 T5837 | 3.50x2.65x0.98 | Fit
0
TEXT
8
TEXT
10
170.0000
20
115.6000
30
0.0000
40
1.5500
1
MIC3 MK3 T5837 | 3.50x2.65x0.98 | Fit
0
ENDSEC
0
EOF
